<mxfile host="app.diagrams.net" agent="Mozilla/5.0 (Windows NT 10.0; Win64; x64) AppleWebKit/537.36 (KHTML, like Gecko) Chrome/128.0.0.0 Safari/537.36" version="24.7.12">
  <diagram name="Trang-1" id="VskvLnXBhUc6ggUZd8kd">
    <mxGraphModel dx="1366" dy="703" grid="1" gridSize="10" guides="1" tooltips="1" connect="1" arrows="1" fold="1" page="1" pageScale="1" pageWidth="827" pageHeight="1169" math="0" shadow="0">
      <root>
        <mxCell id="0" />
        <mxCell id="1" parent="0" />
        <mxCell id="zUNUnrBZXKD53ktJ4jLR-2" value="Đăng nhập&amp;nbsp;" style="ellipse;whiteSpace=wrap;html=1;" vertex="1" parent="1">
          <mxGeometry x="310" y="240" width="125" height="80" as="geometry" />
        </mxCell>
        <mxCell id="zUNUnrBZXKD53ktJ4jLR-3" value="admin" style="ellipse;whiteSpace=wrap;html=1;" vertex="1" parent="1">
          <mxGeometry x="80" y="270" width="120" height="80" as="geometry" />
        </mxCell>
        <mxCell id="zUNUnrBZXKD53ktJ4jLR-4" value="user" style="ellipse;whiteSpace=wrap;html=1;" vertex="1" parent="1">
          <mxGeometry x="550" y="210" width="120" height="80" as="geometry" />
        </mxCell>
        <mxCell id="zUNUnrBZXKD53ktJ4jLR-6" value="Cập nhật sản phẩm" style="ellipse;whiteSpace=wrap;html=1;" vertex="1" parent="1">
          <mxGeometry x="40" y="410" width="120" height="80" as="geometry" />
        </mxCell>
        <mxCell id="zUNUnrBZXKD53ktJ4jLR-7" value="Sửa, thêm, xóa" style="ellipse;whiteSpace=wrap;html=1;" vertex="1" parent="1">
          <mxGeometry x="20" y="560" width="100" height="70" as="geometry" />
        </mxCell>
        <mxCell id="zUNUnrBZXKD53ktJ4jLR-8" value="" style="endArrow=classic;startArrow=classic;html=1;rounded=0;exitX=0.462;exitY=-0.01;exitDx=0;exitDy=0;exitPerimeter=0;entryX=0.5;entryY=1;entryDx=0;entryDy=0;" edge="1" parent="1" source="zUNUnrBZXKD53ktJ4jLR-7" target="zUNUnrBZXKD53ktJ4jLR-6">
          <mxGeometry width="50" height="50" relative="1" as="geometry">
            <mxPoint x="332.19000000000005" y="615.1899999999999" as="sourcePoint" />
            <mxPoint x="276.00451503331783" y="549.999328217363" as="targetPoint" />
          </mxGeometry>
        </mxCell>
        <mxCell id="zUNUnrBZXKD53ktJ4jLR-10" value="" style="endArrow=classic;startArrow=classic;html=1;rounded=0;exitX=0.5;exitY=0;exitDx=0;exitDy=0;entryX=0.325;entryY=1.005;entryDx=0;entryDy=0;entryPerimeter=0;" edge="1" parent="1" source="zUNUnrBZXKD53ktJ4jLR-6" target="zUNUnrBZXKD53ktJ4jLR-3">
          <mxGeometry width="50" height="50" relative="1" as="geometry">
            <mxPoint x="235.00000000000006" y="479.99999999999994" as="sourcePoint" />
            <mxPoint x="178.81451503331783" y="414.809328217363" as="targetPoint" />
          </mxGeometry>
        </mxCell>
        <mxCell id="zUNUnrBZXKD53ktJ4jLR-432" value="" style="endArrow=classic;html=1;rounded=0;entryX=1.012;entryY=0.395;entryDx=0;entryDy=0;entryPerimeter=0;" edge="1" parent="1" source="zUNUnrBZXKD53ktJ4jLR-2" target="zUNUnrBZXKD53ktJ4jLR-3">
          <mxGeometry width="50" height="50" relative="1" as="geometry">
            <mxPoint x="370" y="430" as="sourcePoint" />
            <mxPoint x="420" y="380" as="targetPoint" />
          </mxGeometry>
        </mxCell>
        <mxCell id="zUNUnrBZXKD53ktJ4jLR-433" value="" style="endArrow=classic;html=1;rounded=0;entryX=0.005;entryY=0.64;entryDx=0;entryDy=0;entryPerimeter=0;exitX=1;exitY=0.5;exitDx=0;exitDy=0;" edge="1" parent="1" source="zUNUnrBZXKD53ktJ4jLR-2" target="zUNUnrBZXKD53ktJ4jLR-4">
          <mxGeometry width="50" height="50" relative="1" as="geometry">
            <mxPoint x="565.56" y="206.4" as="sourcePoint" />
            <mxPoint x="459.56" y="270.4" as="targetPoint" />
          </mxGeometry>
        </mxCell>
        <mxCell id="zUNUnrBZXKD53ktJ4jLR-435" value="thống kê" style="ellipse;whiteSpace=wrap;html=1;" vertex="1" parent="1">
          <mxGeometry x="70" y="130" width="100" height="60" as="geometry" />
        </mxCell>
        <mxCell id="zUNUnrBZXKD53ktJ4jLR-436" value="" style="endArrow=classic;startArrow=classic;html=1;rounded=0;entryX=0.5;entryY=1;entryDx=0;entryDy=0;exitX=0.5;exitY=0;exitDx=0;exitDy=0;" edge="1" parent="1" source="zUNUnrBZXKD53ktJ4jLR-3" target="zUNUnrBZXKD53ktJ4jLR-435">
          <mxGeometry width="50" height="50" relative="1" as="geometry">
            <mxPoint x="370" y="430" as="sourcePoint" />
            <mxPoint x="420" y="380" as="targetPoint" />
          </mxGeometry>
        </mxCell>
        <mxCell id="zUNUnrBZXKD53ktJ4jLR-437" value="check mail" style="ellipse;whiteSpace=wrap;html=1;" vertex="1" parent="1">
          <mxGeometry x="310" y="110" width="120" height="80" as="geometry" />
        </mxCell>
        <mxCell id="zUNUnrBZXKD53ktJ4jLR-438" value="check pass" style="ellipse;whiteSpace=wrap;html=1;" vertex="1" parent="1">
          <mxGeometry x="340" y="390" width="120" height="80" as="geometry" />
        </mxCell>
        <mxCell id="zUNUnrBZXKD53ktJ4jLR-439" value="" style="endArrow=classic;html=1;rounded=0;entryX=0.5;entryY=0;entryDx=0;entryDy=0;exitX=0.587;exitY=1.015;exitDx=0;exitDy=0;exitPerimeter=0;" edge="1" parent="1" source="zUNUnrBZXKD53ktJ4jLR-2" target="zUNUnrBZXKD53ktJ4jLR-438">
          <mxGeometry width="50" height="50" relative="1" as="geometry">
            <mxPoint x="490.005" y="318" as="sourcePoint" />
            <mxPoint x="505.34000000000003" y="350" as="targetPoint" />
          </mxGeometry>
        </mxCell>
        <mxCell id="zUNUnrBZXKD53ktJ4jLR-444" value="" style="endArrow=classic;html=1;rounded=0;entryX=0.5;entryY=1;entryDx=0;entryDy=0;exitX=0.5;exitY=0;exitDx=0;exitDy=0;" edge="1" parent="1" source="zUNUnrBZXKD53ktJ4jLR-2" target="zUNUnrBZXKD53ktJ4jLR-437">
          <mxGeometry width="50" height="50" relative="1" as="geometry">
            <mxPoint x="304.665" y="200" as="sourcePoint" />
            <mxPoint x="320.00000000000006" y="232" as="targetPoint" />
          </mxGeometry>
        </mxCell>
        <mxCell id="zUNUnrBZXKD53ktJ4jLR-446" value="Đặt vé" style="ellipse;whiteSpace=wrap;html=1;" vertex="1" parent="1">
          <mxGeometry x="620" y="330" width="120" height="80" as="geometry" />
        </mxCell>
        <mxCell id="zUNUnrBZXKD53ktJ4jLR-447" value="" style="endArrow=classic;startArrow=classic;html=1;rounded=0;entryX=0.612;entryY=1.02;entryDx=0;entryDy=0;entryPerimeter=0;exitX=0.255;exitY=0.02;exitDx=0;exitDy=0;exitPerimeter=0;" edge="1" parent="1" source="zUNUnrBZXKD53ktJ4jLR-446" target="zUNUnrBZXKD53ktJ4jLR-4">
          <mxGeometry width="50" height="50" relative="1" as="geometry">
            <mxPoint x="570" y="370" as="sourcePoint" />
            <mxPoint x="620" y="320" as="targetPoint" />
          </mxGeometry>
        </mxCell>
        <mxCell id="zUNUnrBZXKD53ktJ4jLR-449" value="" style="endArrow=classic;startArrow=classic;html=1;rounded=0;entryX=0.588;entryY=0.97;entryDx=0;entryDy=0;entryPerimeter=0;exitX=0.581;exitY=-0.01;exitDx=0;exitDy=0;exitPerimeter=0;" edge="1" parent="1" source="zUNUnrBZXKD53ktJ4jLR-450" target="zUNUnrBZXKD53ktJ4jLR-446">
          <mxGeometry width="50" height="50" relative="1" as="geometry">
            <mxPoint x="700" y="460" as="sourcePoint" />
            <mxPoint x="699.56" y="410.4" as="targetPoint" />
          </mxGeometry>
        </mxCell>
        <mxCell id="zUNUnrBZXKD53ktJ4jLR-450" value="thời gian&amp;nbsp;" style="ellipse;whiteSpace=wrap;html=1;" vertex="1" parent="1">
          <mxGeometry x="660" y="470" width="125" height="80" as="geometry" />
        </mxCell>
        <mxCell id="zUNUnrBZXKD53ktJ4jLR-451" value="thanh toán" style="ellipse;whiteSpace=wrap;html=1;" vertex="1" parent="1">
          <mxGeometry x="610" y="60" width="120" height="80" as="geometry" />
        </mxCell>
        <mxCell id="zUNUnrBZXKD53ktJ4jLR-452" value="" style="endArrow=classic;startArrow=classic;html=1;rounded=0;entryX=0.417;entryY=1;entryDx=0;entryDy=0;entryPerimeter=0;exitX=0.667;exitY=0;exitDx=0;exitDy=0;exitPerimeter=0;" edge="1" parent="1" source="zUNUnrBZXKD53ktJ4jLR-4" target="zUNUnrBZXKD53ktJ4jLR-451">
          <mxGeometry width="50" height="50" relative="1" as="geometry">
            <mxPoint x="630" y="200" as="sourcePoint" />
            <mxPoint x="680" y="150" as="targetPoint" />
          </mxGeometry>
        </mxCell>
      </root>
    </mxGraphModel>
  </diagram>
</mxfile>
